<svg xmlns="http://www.w3.org/2000/svg" xmlns:xlink="http://www.w3.org/1999/xlink" width="500" zoomAndPan="magnify" viewBox="0 0 375 374.999991" height="500" preserveAspectRatio="xMidYMid meet" version="1.0"><defs><clipPath id="6e7f5719de"><path d="M 40.894531 12.714844 L 334.132812 12.714844 L 334.132812 105.902344 L 40.894531 105.902344 Z M 40.894531 12.714844 " clip-rule="nonzero"/></clipPath><clipPath id="f32a746108"><path d="M 40.894531 136 L 258 136 L 258 230 L 40.894531 230 Z M 40.894531 136 " clip-rule="nonzero"/></clipPath><clipPath id="e953e53e28"><path d="M 40.894531 260 L 124.222656 260 L 124.222656 362.421875 L 40.894531 362.421875 Z M 40.894531 260 " clip-rule="nonzero"/></clipPath></defs><g clip-path="url(#6e7f5719de)"><path fill="#e74d34" d="M 97.949219 12.714844 C 40.894531 12.714844 40.894531 57.917969 40.894531 57.917969 L 40.894531 105.484375 L 251.316406 105.484375 C 297.054688 105.484375 334.132812 68.394531 334.132812 22.644531 L 334.132812 12.714844 L 97.949219 12.714844 " fill-opacity="1" fill-rule="nonzero"/></g><g clip-path="url(#f32a746108)"><path fill="#e74d34" d="M 49.9375 229.328125 L 174.371094 229.328125 C 220.109375 229.328125 257.1875 192.242188 257.1875 146.492188 L 257.1875 136.5625 L 40.894531 136.5625 L 40.894531 229.328125 L 49.9375 229.328125 " fill-opacity="1" fill-rule="nonzero"/></g><g clip-path="url(#e953e53e28)"><path fill="#e74d34" d="M 40.894531 362.421875 L 50.398438 362.421875 L 50.398438 361.917969 C 91.859375 357.390625 124.132812 322.261719 124.132812 279.585938 L 124.132812 260.128906 L 40.894531 260.128906 L 40.894531 362.421875 " fill-opacity="1" fill-rule="nonzero"/></g></svg>